<?xml version="1.0" encoding="UTF-8"?>
<svg xmlns="http://www.w3.org/2000/svg"
     xmlns:xlink="http://www.w3.org/1999/xlink"
     xmlns:gadfly="http://www.gadflyjl.org/ns"
     version="1.2"
     width="152.4mm" height="76.2mm" viewBox="0 0 152.4 76.2"
     stroke="none"
     fill="#000000"
     stroke-width="0.3"
>
<g class="plotroot xscalable yscalable" id="fig-eadc581d2dad48518be7f6b9a24e185e-element-1">
  <g font-size="3.88" font-family="'PT Sans','Helvetica Neue','Helvetica',sans-serif" fill="#564A55" stroke="none" id="fig-eadc581d2dad48518be7f6b9a24e185e-element-2">
    <text x="80.5" y="66.2" text-anchor="end" dy="0.35em" transform="rotate(-90, 80.5, 66.2)">x</text>
  </g>
  <g class="guide xlabels" font-size="2.82" font-family="'PT Sans Caption','Helvetica Neue','Helvetica',sans-serif" fill="#6C606B" id="fig-eadc581d2dad48518be7f6b9a24e185e-element-3">
    <text x="15.59" y="64.2" text-anchor="middle">0.0</text>
    <text x="80.5" y="64.2" text-anchor="middle">0.5</text>
    <text x="145.4" y="64.2" text-anchor="middle">1.0</text>
  </g>
  <g clip-path="url(#fig-eadc581d2dad48518be7f6b9a24e185e-element-5)" id="fig-eadc581d2dad48518be7f6b9a24e185e-element-4">
    <g pointer-events="visible" opacity="1" fill="none" stroke="none" class="guide background" id="fig-eadc581d2dad48518be7f6b9a24e185e-element-6">
      <rect x="13.59" y="5" width="133.81" height="55.53"/>
    </g>
    <g class="guide ygridlines xfixed" stroke-dasharray="0.5,0.5" stroke-width="0.2" stroke="#D0D0E0" id="fig-eadc581d2dad48518be7f6b9a24e185e-element-7">
      <path d="M13.59,58.53 L 147.4 58.53"/>
      <path d="M13.59,41.35 L 147.4 41.35"/>
      <path d="M13.59,24.18 L 147.4 24.18"/>
      <path d="M13.59,7 L 147.4 7"/>
    </g>
    <g class="guide xgridlines yfixed" stroke-dasharray="0.5,0.5" stroke-width="0.2" stroke="#D0D0E0" id="fig-eadc581d2dad48518be7f6b9a24e185e-element-8">
      <path d="M15.59,5 L 15.59 60.53"/>
      <path d="M80.5,5 L 80.5 60.53"/>
      <path d="M145.4,5 L 145.4 60.53"/>
    </g>
    <g class="plotpanel" id="fig-eadc581d2dad48518be7f6b9a24e185e-element-9">
      <g stroke-width="0.3" fill="none" class="geometry" stroke="#0000FF" id="fig-eadc581d2dad48518be7f6b9a24e185e-element-10">
        <path d="M15.59,23.67 L 16.24 23.68 16.9 23.72 17.55 23.78 18.2 23.86 18.85 23.97 19.51 24.1 20.16 24.25 20.81 24.42 21.46 24.61 22.12 24.82 22.77 25.05 23.42 25.3 24.07 25.57 24.72 25.85 25.38 26.16 26.03 26.47 26.68 26.8 27.33 27.15 27.99 27.51 28.64 27.89 29.29 28.28 29.94 28.68 30.6 29.09 31.25 29.51 31.9 29.95 32.55 30.39 33.2 30.84 33.86 31.3 34.51 31.77 35.16 32.25 35.81 32.74 36.47 33.23 37.12 33.72 37.77 34.23 38.42 34.73 39.08 35.25 39.73 35.76 40.38 36.28 41.03 36.8 41.68 37.33 42.34 37.85 42.99 38.38 43.64 38.91 44.29 39.44 44.95 39.97 45.6 40.49 46.25 41.02 46.9 41.55 47.56 42.07 48.21 42.59 48.86 43.11 49.51 43.62 50.16 44.13 50.82 44.64 51.47 45.14 52.12 45.64 52.77 46.13 53.43 46.62 54.08 47.1 54.73 47.57 55.38 48.04 56.04 48.49 56.69 48.95 57.34 49.39 57.99 49.82 58.64 50.25 59.3 50.67 59.95 51.07 60.6 51.47 61.25 51.86 61.91 52.24 62.56 52.61 63.21 52.96 63.86 53.31 64.51 53.64 65.17 53.96 65.82 54.28 66.47 54.57 67.12 54.86 67.78 55.13 68.43 55.39 69.08 55.64 69.73 55.88 70.39 56.1 71.04 56.31 71.69 56.5 72.34 56.68 72.99 56.85 73.65 57 74.3 57.14 74.95 57.26 75.6 57.37 76.26 57.47 76.91 57.55 77.56 57.61 78.21 57.66 78.87 57.7 79.52 57.72 80.17 57.73 80.82 57.72 81.47 57.69 82.13 57.66 82.78 57.6 83.43 57.53 84.08 57.45 84.74 57.35 85.39 57.24 86.04 57.11 86.69 56.96 87.35 56.81 88 56.63 88.65 56.45 89.3 56.24 89.95 56.03 90.61 55.8 91.26 55.56 91.91 55.3 92.56 55.03 93.22 54.74 93.87 54.44 94.52 54.13 95.17 53.81 95.83 53.47 96.48 53.12 97.13 52.76 97.78 52.39 98.43 52 99.09 51.61 99.74 51.2 100.39 50.78 101.04 50.35 101.7 49.92 102.35 49.47 103 49.01 103.65 48.54 104.31 48.07 104.96 47.59 105.61 47.1 106.26 46.6 106.91 46.09 107.57 45.58 108.22 45.07 108.87 44.54 109.52 44.01 110.18 43.48 110.83 42.95 111.48 42.41 112.13 41.87 112.79 41.32 113.44 40.77 114.09 40.23 114.74 39.68 115.39 39.13 116.05 38.58 116.7 38.04 117.35 37.5 118 36.96 118.66 36.42 119.31 35.89 119.96 35.36 120.61 34.83 121.26 34.32 121.92 33.81 122.57 33.31 123.22 32.82 123.87 32.33 124.53 31.86 125.18 31.4 125.83 30.95 126.48 30.51 127.14 30.09 127.79 29.68 128.44 29.29 129.09 28.92 129.74 28.56 130.4 28.22 131.05 27.9 131.7 27.6 132.35 27.32 133.01 27.07 133.66 26.84 134.31 26.63 134.96 26.45 135.62 26.3 136.27 26.17 136.92 26.07 137.57 26.01 138.22 25.97 138.88 25.97 139.53 26 140.18 26.07 140.83 26.17 141.49 26.31 142.14 26.49 142.79 26.71 143.44 26.97 144.1 27.27 144.75 27.62 145.4 28.01"/>
      </g>
      <g stroke-width="0.3" fill="none" class="geometry" stroke="#0000FF" id="fig-eadc581d2dad48518be7f6b9a24e185e-element-11">
        <path d="M15.59,24.03 L 16.24 23.96 16.9 23.92 17.55 23.91 18.2 23.93 18.85 23.98 19.51 24.06 20.16 24.16 20.81 24.29 21.46 24.45 22.12 24.63 22.77 24.83 23.42 25.06 24.07 25.3 24.72 25.57 25.38 25.86 26.03 26.17 26.68 26.49 27.33 26.84 27.99 27.2 28.64 27.57 29.29 27.96 29.94 28.37 30.6 28.79 31.25 29.22 31.9 29.66 32.55 30.12 33.2 30.58 33.86 31.06 34.51 31.54 35.16 32.04 35.81 32.54 36.47 33.05 37.12 33.56 37.77 34.08 38.42 34.61 39.08 35.14 39.73 35.67 40.38 36.21 41.03 36.75 41.68 37.3 42.34 37.84 42.99 38.39 43.64 38.93 44.29 39.48 44.95 40.02 45.6 40.57 46.25 41.11 46.9 41.65 47.56 42.19 48.21 42.73 48.86 43.26 49.51 43.79 50.16 44.31 50.82 44.83 51.47 45.34 52.12 45.85 52.77 46.35 53.43 46.84 54.08 47.33 54.73 47.81 55.38 48.28 56.04 48.74 56.69 49.2 57.34 49.64 57.99 50.08 58.64 50.51 59.3 50.93 59.95 51.33 60.6 51.73 61.25 52.11 61.91 52.49 62.56 52.85 63.21 53.2 63.86 53.54 64.51 53.87 65.17 54.19 65.82 54.49 66.47 54.78 67.12 55.06 67.78 55.32 68.43 55.57 69.08 55.81 69.73 56.03 70.39 56.24 71.04 56.44 71.69 56.62 72.34 56.79 72.99 56.94 73.65 57.08 74.3 57.21 74.95 57.32 75.6 57.41 76.26 57.49 76.91 57.56 77.56 57.61 78.21 57.65 78.87 57.67 79.52 57.68 80.17 57.67 80.82 57.65 81.47 57.61 82.13 57.56 82.78 57.49 83.43 57.41 84.08 57.31 84.74 57.2 85.39 57.07 86.04 56.94 86.69 56.78 87.35 56.61 88 56.43 88.65 56.24 89.3 56.03 89.95 55.8 90.61 55.57 91.26 55.32 91.91 55.05 92.56 54.78 93.22 54.49 93.87 54.19 94.52 53.88 95.17 53.55 95.83 53.21 96.48 52.86 97.13 52.51 97.78 52.13 98.43 51.75 99.09 51.36 99.74 50.96 100.39 50.55 101.04 50.13 101.7 49.69 102.35 49.26 103 48.81 103.65 48.35 104.31 47.89 104.96 47.42 105.61 46.94 106.26 46.45 106.91 45.96 107.57 45.47 108.22 44.97 108.87 44.46 109.52 43.95 110.18 43.43 110.83 42.91 111.48 42.39 112.13 41.87 112.79 41.34 113.44 40.82 114.09 40.29 114.74 39.76 115.39 39.23 116.05 38.7 116.7 38.18 117.35 37.65 118 37.13 118.66 36.61 119.31 36.09 119.96 35.58 120.61 35.07 121.26 34.57 121.92 34.08 122.57 33.59 123.22 33.1 123.87 32.63 124.53 32.17 125.18 31.71 125.83 31.27 126.48 30.83 127.14 30.41 127.79 30 128.44 29.6 129.09 29.22 129.74 28.85 130.4 28.49 131.05 28.16 131.7 27.84 132.35 27.53 133.01 27.25 133.66 26.98 134.31 26.74 134.96 26.51 135.62 26.31 136.27 26.13 136.92 25.97 137.57 25.84 138.22 25.74 138.88 25.66 139.53 25.6 140.18 25.58 140.83 25.58 141.49 25.62 142.14 25.68 142.79 25.78 143.44 25.91 144.1 26.07 144.75 26.27 145.4 26.51"/>
      </g>
      <g stroke-width="0.3" fill="none" class="geometry" stroke="#0000FF" id="fig-eadc581d2dad48518be7f6b9a24e185e-element-12">
        <path d="M15.59,18.45 L 16.24 19.11 16.9 19.77 17.55 20.42 18.2 21.07 18.85 21.72 19.51 22.36 20.16 22.99 20.81 23.61 21.46 24.24 22.12 24.85 22.77 25.46 23.42 26.07 24.07 26.67 24.72 27.26 25.38 27.85 26.03 28.43 26.68 29.01 27.33 29.58 27.99 30.14 28.64 30.7 29.29 31.26 29.94 31.8 30.6 32.34 31.25 32.88 31.9 33.41 32.55 33.93 33.2 34.45 33.86 34.96 34.51 35.47 35.16 35.97 35.81 36.46 36.47 36.95 37.12 37.43 37.77 37.91 38.42 38.38 39.08 38.84 39.73 39.29 40.38 39.74 41.03 40.19 41.68 40.63 42.34 41.06 42.99 41.48 43.64 41.9 44.29 42.31 44.95 42.72 45.6 43.12 46.25 43.51 46.9 43.9 47.56 44.28 48.21 44.65 48.86 45.01 49.51 45.37 50.16 45.73 50.82 46.07 51.47 46.41 52.12 46.75 52.77 47.07 53.43 47.39 54.08 47.7 54.73 48.01 55.38 48.31 56.04 48.6 56.69 48.88 57.34 49.16 57.99 49.43 58.64 49.7 59.3 49.95 59.95 50.2 60.6 50.45 61.25 50.68 61.91 50.91 62.56 51.13 63.21 51.35 63.86 51.55 64.51 51.75 65.17 51.95 65.82 52.13 66.47 52.31 67.12 52.48 67.78 52.64 68.43 52.8 69.08 52.95 69.73 53.09 70.39 53.22 71.04 53.35 71.69 53.47 72.34 53.58 72.99 53.68 73.65 53.78 74.3 53.86 74.95 53.94 75.6 54.02 76.26 54.08 76.91 54.14 77.56 54.19 78.21 54.23 78.87 54.26 79.52 54.29 80.17 54.31 80.82 54.32 81.47 54.32 82.13 54.32 82.78 54.3 83.43 54.28 84.08 54.25 84.74 54.21 85.39 54.17 86.04 54.11 86.69 54.05 87.35 53.98 88 53.9 88.65 53.82 89.3 53.72 89.95 53.62 90.61 53.51 91.26 53.39 91.91 53.26 92.56 53.13 93.22 52.98 93.87 52.83 94.52 52.67 95.17 52.5 95.83 52.32 96.48 52.13 97.13 51.94 97.78 51.73 98.43 51.52 99.09 51.3 99.74 51.07 100.39 50.83 101.04 50.58 101.7 50.33 102.35 50.06 103 49.79 103.65 49.51 104.31 49.22 104.96 48.92 105.61 48.61 106.26 48.29 106.91 47.96 107.57 47.63 108.22 47.28 108.87 46.93 109.52 46.57 110.18 46.19 110.83 45.81 111.48 45.42 112.13 45.02 112.79 44.62 113.44 44.2 114.09 43.77 114.74 43.34 115.39 42.89 116.05 42.44 116.7 41.97 117.35 41.5 118 41.02 118.66 40.52 119.31 40.02 119.96 39.51 120.61 38.99 121.26 38.46 121.92 37.92 122.57 37.37 123.22 36.81 123.87 36.25 124.53 35.67 125.18 35.08 125.83 34.48 126.48 33.88 127.14 33.26 127.79 32.63 128.44 32 129.09 31.35 129.74 30.7 130.4 30.03 131.05 29.35 131.7 28.67 132.35 27.97 133.01 27.27 133.66 26.55 134.31 25.83 134.96 25.09 135.62 24.35 136.27 23.59 136.92 22.82 137.57 22.05 138.22 21.26 138.88 20.47 139.53 19.66 140.18 18.84 140.83 18.01 141.49 17.18 142.14 16.33 142.79 15.47 143.44 14.6 144.1 13.72 144.75 12.83 145.4 11.93"/>
      </g>
      <g stroke-width="0.3" fill="none" class="geometry" stroke="#0000FF" id="fig-eadc581d2dad48518be7f6b9a24e185e-element-13">
        <path d="M15.59,17.18 L 16.24 17.94 16.9 18.68 17.55 19.42 18.2 20.15 18.85 20.88 19.51 21.59 20.16 22.3 20.81 23 21.46 23.7 22.12 24.38 22.77 25.06 23.42 25.73 24.07 26.39 24.72 27.05 25.38 27.69 26.03 28.33 26.68 28.96 27.33 29.58 27.99 30.2 28.64 30.81 29.29 31.41 29.94 32 30.6 32.58 31.25 33.16 31.9 33.73 32.55 34.29 33.2 34.84 33.86 35.38 34.51 35.92 35.16 36.45 35.81 36.97 36.47 37.49 37.12 37.99 37.77 38.49 38.42 38.98 39.08 39.47 39.73 39.94 40.38 40.41 41.03 40.87 41.68 41.32 42.34 41.76 42.99 42.2 43.64 42.63 44.29 43.05 44.95 43.46 45.6 43.87 46.25 44.26 46.9 44.65 47.56 45.03 48.21 45.41 48.86 45.77 49.51 46.13 50.16 46.48 50.82 46.83 51.47 47.16 52.12 47.49 52.77 47.81 53.43 48.12 54.08 48.42 54.73 48.72 55.38 49.01 56.04 49.29 56.69 49.56 57.34 49.83 57.99 50.08 58.64 50.33 59.3 50.57 59.95 50.81 60.6 51.03 61.25 51.25 61.91 51.46 62.56 51.67 63.21 51.86 63.86 52.05 64.51 52.23 65.17 52.4 65.82 52.56 66.47 52.72 67.12 52.87 67.78 53.01 68.43 53.14 69.08 53.27 69.73 53.38 70.39 53.49 71.04 53.59 71.69 53.69 72.34 53.77 72.99 53.85 73.65 53.92 74.3 53.99 74.95 54.04 75.6 54.09 76.26 54.13 76.91 54.16 77.56 54.18 78.21 54.2 78.87 54.21 79.52 54.21 80.17 54.2 80.82 54.19 81.47 54.16 82.13 54.13 82.78 54.09 83.43 54.05 84.08 53.99 84.74 53.93 85.39 53.86 86.04 53.78 86.69 53.7 87.35 53.61 88 53.51 88.65 53.4 89.3 53.28 89.95 53.16 90.61 53.03 91.26 52.89 91.91 52.74 92.56 52.58 93.22 52.42 93.87 52.25 94.52 52.07 95.17 51.89 95.83 51.69 96.48 51.49 97.13 51.28 97.78 51.06 98.43 50.84 99.09 50.6 99.74 50.36 100.39 50.12 101.04 49.86 101.7 49.59 102.35 49.32 103 49.04 103.65 48.76 104.31 48.46 104.96 48.16 105.61 47.85 106.26 47.53 106.91 47.2 107.57 46.87 108.22 46.53 108.87 46.18 109.52 45.82 110.18 45.45 110.83 45.08 111.48 44.7 112.13 44.31 112.79 43.92 113.44 43.51 114.09 43.1 114.74 42.68 115.39 42.25 116.05 41.82 116.7 41.37 117.35 40.92 118 40.47 118.66 40 119.31 39.52 119.96 39.04 120.61 38.55 121.26 38.06 121.92 37.55 122.57 37.04 123.22 36.52 123.87 35.99 124.53 35.45 125.18 34.91 125.83 34.36 126.48 33.8 127.14 33.23 127.79 32.65 128.44 32.07 129.09 31.48 129.74 30.88 130.4 30.27 131.05 29.66 131.7 29.04 132.35 28.41 133.01 27.77 133.66 27.13 134.31 26.47 134.96 25.81 135.62 25.14 136.27 24.47 136.92 23.78 137.57 23.09 138.22 22.39 138.88 21.68 139.53 20.97 140.18 20.25 140.83 19.51 141.49 18.78 142.14 18.03 142.79 17.27 143.44 16.51 144.1 15.74 144.75 14.97 145.4 14.18"/>
      </g>
      <g stroke-width="0.3" fill="none" class="geometry" stroke="#FF0000" id="fig-eadc581d2dad48518be7f6b9a24e185e-element-14">
        <path d="M15.59,24.18 L 16.24 24.18 16.9 24.21 17.55 24.25 18.2 24.31 18.85 24.39 19.51 24.48 20.16 24.59 20.81 24.72 21.46 24.86 22.12 25.03 22.77 25.2 23.42 25.39 24.07 25.6 24.72 25.83 25.38 26.07 26.03 26.32 26.68 26.59 27.33 26.88 27.99 27.18 28.64 27.49 29.29 27.82 29.94 28.16 30.6 28.51 31.25 28.88 31.9 29.25 32.55 29.65 33.2 30.05 33.86 30.46 34.51 30.89 35.16 31.32 35.81 31.77 36.47 32.22 37.12 32.69 37.77 33.16 38.42 33.64 39.08 34.13 39.73 34.62 40.38 35.13 41.03 35.63 41.68 36.15 42.34 36.67 42.99 37.19 43.64 37.72 44.29 38.25 44.95 38.79 45.6 39.32 46.25 39.86 46.9 40.4 47.56 40.95 48.21 41.49 48.86 42.03 49.51 42.57 50.16 43.11 50.82 43.65 51.47 44.19 52.12 44.72 52.77 45.25 53.43 45.78 54.08 46.3 54.73 46.81 55.38 47.33 56.04 47.83 56.69 48.33 57.34 48.82 57.99 49.31 58.64 49.78 59.3 50.25 59.95 50.71 60.6 51.16 61.25 51.6 61.91 52.03 62.56 52.45 63.21 52.86 63.86 53.26 64.51 53.64 65.17 54.01 65.82 54.37 66.47 54.72 67.12 55.05 67.78 55.37 68.43 55.68 69.08 55.97 69.73 56.25 70.39 56.51 71.04 56.76 71.69 56.99 72.34 57.21 72.99 57.41 73.65 57.59 74.3 57.76 74.95 57.91 75.6 58.05 76.26 58.17 76.91 58.27 77.56 58.36 78.21 58.42 78.87 58.47 79.52 58.51 80.17 58.53 80.82 58.53 81.47 58.51 82.13 58.47 82.78 58.42 83.43 58.36 84.08 58.27 84.74 58.17 85.39 58.05 86.04 57.91 86.69 57.76 87.35 57.59 88 57.41 88.65 57.21 89.3 56.99 89.95 56.76 90.61 56.51 91.26 56.25 91.91 55.97 92.56 55.68 93.22 55.37 93.87 55.05 94.52 54.72 95.17 54.37 95.83 54.01 96.48 53.64 97.13 53.26 97.78 52.86 98.43 52.45 99.09 52.03 99.74 51.6 100.39 51.16 101.04 50.71 101.7 50.25 102.35 49.78 103 49.31 103.65 48.82 104.31 48.33 104.96 47.83 105.61 47.33 106.26 46.81 106.91 46.3 107.57 45.78 108.22 45.25 108.87 44.72 109.52 44.19 110.18 43.65 110.83 43.11 111.48 42.57 112.13 42.03 112.79 41.49 113.44 40.95 114.09 40.4 114.74 39.86 115.39 39.32 116.05 38.79 116.7 38.25 117.35 37.72 118 37.19 118.66 36.67 119.31 36.15 119.96 35.63 120.61 35.13 121.26 34.62 121.92 34.13 122.57 33.64 123.22 33.16 123.87 32.69 124.53 32.22 125.18 31.77 125.83 31.32 126.48 30.89 127.14 30.46 127.79 30.05 128.44 29.65 129.09 29.25 129.74 28.88 130.4 28.51 131.05 28.16 131.7 27.82 132.35 27.49 133.01 27.18 133.66 26.88 134.31 26.59 134.96 26.32 135.62 26.07 136.27 25.83 136.92 25.6 137.57 25.39 138.22 25.2 138.88 25.03 139.53 24.86 140.18 24.72 140.83 24.59 141.49 24.48 142.14 24.39 142.79 24.31 143.44 24.25 144.1 24.21 144.75 24.18 145.4 24.18"/>
      </g>
    </g>
  </g>
  <g class="guide ylabels" font-size="2.82" font-family="'PT Sans Caption','Helvetica Neue','Helvetica',sans-serif" fill="#6C606B" id="fig-eadc581d2dad48518be7f6b9a24e185e-element-15">
    <text x="12.59" y="58.53" text-anchor="end" dy="0.35em">-1</text>
    <text x="12.59" y="41.35" text-anchor="end" dy="0.35em">0</text>
    <text x="12.59" y="24.18" text-anchor="end" dy="0.35em">1</text>
    <text x="12.59" y="7" text-anchor="end" dy="0.35em">2</text>
  </g>
  <g font-size="3.88" font-family="'PT Sans','Helvetica Neue','Helvetica',sans-serif" fill="#564A55" stroke="none" id="fig-eadc581d2dad48518be7f6b9a24e185e-element-16">
    <text x="8.81" y="32.76" text-anchor="end" dy="0.35em">y</text>
  </g>
</g>
<defs>
<clipPath id="fig-eadc581d2dad48518be7f6b9a24e185e-element-5">
  <path d="M13.59,5 L 147.4 5 147.4 60.53 13.59 60.53" />
</clipPath
></defs>
</svg>
